<?xml version="1.0" encoding="UTF-8" standalone="no"?>
<!DOCTYPE svg PUBLIC "-//W3C//DTD SVG 1.1//EN"
 "http://www.w3.org/Graphics/SVG/1.1/DTD/svg11.dtd">
<!-- Generated by graphviz version 16.0.0 (0)
 -->
<!-- Title: encapsulamiento Pages: 1 -->
<svg width="546pt" height="218pt"
 viewBox="0.00 0.00 546.00 218.00" xmlns="http://www.w3.org/2000/svg" xmlns:xlink="http://www.w3.org/1999/xlink">
<g id="graph0" class="graph" transform="scale(1 1) rotate(0) translate(4 213.5)">
<title>encapsulamiento</title>
<polygon fill="white" stroke="none" points="-4,4 -4,-213.5 541.75,-213.5 541.75,4 -4,4"/>
<!-- app -->
<g id="node1" class="node">
<title>app</title>
<polygon fill="#eeedfe" stroke="none" points="102.25,-182 102.25,-209.5 292.25,-209.5 292.25,-182 102.25,-182"/>
<polygon fill="none" stroke="black" points="102.25,-182 102.25,-209.5 292.25,-209.5 292.25,-182 102.25,-182"/>
<text xml:space="preserve" text-anchor="start" x="115.5" y="-192" font-family="DejaVu Sans" font-size="11.00">Datos (p. ej. una página web)</text>
<text xml:space="preserve" text-anchor="start" x="298.25" y="-193.05" font-family="DejaVu Sans" font-size="11.00"> &#160;Aplicación → </text>
<text xml:space="preserve" text-anchor="start" x="377.75" y="-193.05" font-family="DejaVu Sans" font-weight="bold" font-size="11.00">mensaje</text>
</g>
<!-- tr -->
<g id="node2" class="node">
<title>tr</title>
<polygon fill="#e1f5ee" stroke="none" points="64.88,-136.5 64.88,-164 127.62,-164 127.62,-136.5 64.88,-136.5"/>
<polygon fill="none" stroke="black" points="64.88,-136.5 64.88,-164 127.62,-164 127.62,-136.5 64.88,-136.5"/>
<text xml:space="preserve" text-anchor="start" x="71.88" y="-146.5" font-family="DejaVu Sans" font-size="11.00">Cab. TCP</text>
<polygon fill="#eeedfe" stroke="none" points="127.62,-136.5 127.62,-164 317.62,-164 317.62,-136.5 127.62,-136.5"/>
<polygon fill="none" stroke="black" points="127.62,-136.5 127.62,-164 317.62,-164 317.62,-136.5 127.62,-136.5"/>
<text xml:space="preserve" text-anchor="start" x="206.5" y="-146.5" font-family="DejaVu Sans" font-size="11.00">Datos</text>
<text xml:space="preserve" text-anchor="start" x="323.62" y="-147.55" font-family="DejaVu Sans" font-size="11.00"> &#160;Transporte → </text>
<text xml:space="preserve" text-anchor="start" x="406.12" y="-147.55" font-family="DejaVu Sans" font-weight="bold" font-size="11.00">segmento</text>
</g>
<!-- app&#45;&gt;tr -->
<g id="edge1" class="edge">
<title>app&#45;&gt;tr</title>
<path fill="none" stroke="#5f5e5a" d="M268.88,-182.4C268.88,-179.21 268.88,-175.69 268.88,-172.2"/>
<polygon fill="#5f5e5a" stroke="#5f5e5a" points="271.33,-172.29 268.88,-165.29 266.43,-172.29 271.33,-172.29"/>
</g>
<!-- red -->
<g id="node3" class="node">
<title>red</title>
<polygon fill="#faeeda" stroke="none" points="62.75,-91 62.75,-118.5 115,-118.5 115,-91 62.75,-91"/>
<polygon fill="none" stroke="black" points="62.75,-91 62.75,-118.5 115,-118.5 115,-91 62.75,-91"/>
<text xml:space="preserve" text-anchor="start" x="69.75" y="-101" font-family="DejaVu Sans" font-size="11.00">Cab. IP</text>
<polygon fill="#e1f5ee" stroke="none" points="115,-91 115,-118.5 177.75,-118.5 177.75,-91 115,-91"/>
<polygon fill="none" stroke="black" points="115,-91 115,-118.5 177.75,-118.5 177.75,-91 115,-91"/>
<text xml:space="preserve" text-anchor="start" x="122" y="-101" font-family="DejaVu Sans" font-size="11.00">Cab. TCP</text>
<polygon fill="#eeedfe" stroke="none" points="177.75,-91 177.75,-118.5 367.75,-118.5 367.75,-91 177.75,-91"/>
<polygon fill="none" stroke="black" points="177.75,-91 177.75,-118.5 367.75,-118.5 367.75,-91 177.75,-91"/>
<text xml:space="preserve" text-anchor="start" x="256.62" y="-101" font-family="DejaVu Sans" font-size="11.00">Datos</text>
<text xml:space="preserve" text-anchor="start" x="373.75" y="-102.05" font-family="DejaVu Sans" font-size="11.00"> &#160;Red → </text>
<text xml:space="preserve" text-anchor="start" x="418.75" y="-102.05" font-family="DejaVu Sans" font-weight="bold" font-size="11.00">paquete</text>
</g>
<!-- tr&#45;&gt;red -->
<g id="edge2" class="edge">
<title>tr&#45;&gt;red</title>
<path fill="none" stroke="#5f5e5a" d="M268.88,-136.9C268.88,-133.71 268.88,-130.19 268.88,-126.7"/>
<polygon fill="#5f5e5a" stroke="#5f5e5a" points="271.33,-126.79 268.88,-119.79 266.43,-126.79 271.33,-126.79"/>
</g>
<!-- enl -->
<g id="node4" class="node">
<title>enl</title>
<polygon fill="#faece7" stroke="none" points="0,-45.5 0,-73 89.75,-73 89.75,-45.5 0,-45.5"/>
<polygon fill="none" stroke="black" points="0,-45.5 0,-73 89.75,-73 89.75,-45.5 0,-45.5"/>
<text xml:space="preserve" text-anchor="start" x="7" y="-55.5" font-family="DejaVu Sans" font-size="11.00">Cab. Ethernet</text>
<polygon fill="#faeeda" stroke="none" points="89.75,-45.5 89.75,-73 142,-73 142,-45.5 89.75,-45.5"/>
<polygon fill="none" stroke="black" points="89.75,-45.5 89.75,-73 142,-73 142,-45.5 89.75,-45.5"/>
<text xml:space="preserve" text-anchor="start" x="96.75" y="-55.5" font-family="DejaVu Sans" font-size="11.00">Cab. IP</text>
<polygon fill="#e1f5ee" stroke="none" points="142,-45.5 142,-73 204.75,-73 204.75,-45.5 142,-45.5"/>
<polygon fill="none" stroke="black" points="142,-45.5 142,-73 204.75,-73 204.75,-45.5 142,-45.5"/>
<text xml:space="preserve" text-anchor="start" x="149" y="-55.5" font-family="DejaVu Sans" font-size="11.00">Cab. TCP</text>
<polygon fill="#eeedfe" stroke="none" points="204.75,-45.5 204.75,-73 394.75,-73 394.75,-45.5 204.75,-45.5"/>
<polygon fill="none" stroke="black" points="204.75,-45.5 204.75,-73 394.75,-73 394.75,-45.5 204.75,-45.5"/>
<text xml:space="preserve" text-anchor="start" x="283.62" y="-55.5" font-family="DejaVu Sans" font-size="11.00">Datos</text>
<polygon fill="#faece7" stroke="none" points="394.75,-45.5 394.75,-73 429,-73 429,-45.5 394.75,-45.5"/>
<polygon fill="none" stroke="black" points="394.75,-45.5 394.75,-73 429,-73 429,-45.5 394.75,-45.5"/>
<text xml:space="preserve" text-anchor="start" x="401.75" y="-55.5" font-family="DejaVu Sans" font-size="11.00">FCS</text>
<text xml:space="preserve" text-anchor="start" x="435" y="-56.55" font-family="DejaVu Sans" font-size="11.00"> &#160;Enlace → </text>
<text xml:space="preserve" text-anchor="start" x="495" y="-56.55" font-family="DejaVu Sans" font-weight="bold" font-size="11.00">trama</text>
</g>
<!-- red&#45;&gt;enl -->
<g id="edge3" class="edge">
<title>red&#45;&gt;enl</title>
<path fill="none" stroke="#5f5e5a" d="M268.88,-91.4C268.88,-88.21 268.88,-84.69 268.88,-81.2"/>
<polygon fill="#5f5e5a" stroke="#5f5e5a" points="271.33,-81.29 268.88,-74.29 266.43,-81.29 271.33,-81.29"/>
</g>
<!-- fis -->
<g id="node5" class="node">
<title>fis</title>
<polygon fill="#f1efe8" stroke="none" points="13.88,0 13.88,-27.5 433.88,-27.5 433.88,0 13.88,0"/>
<polygon fill="none" stroke="black" points="13.88,0 13.88,-27.5 433.88,-27.5 433.88,0 13.88,0"/>
<text xml:space="preserve" text-anchor="start" x="121.88" y="-10" font-family="DejaVu Sans" font-size="11.00">0110100101110001010110100101 …</text>
<text xml:space="preserve" text-anchor="start" x="439.88" y="-11.05" font-family="DejaVu Sans" font-size="11.00"> &#160;Física → </text>
<text xml:space="preserve" text-anchor="start" x="494.62" y="-11.05" font-family="DejaVu Sans" font-weight="bold" font-size="11.00">bits</text>
</g>
<!-- enl&#45;&gt;fis -->
<g id="edge4" class="edge">
<title>enl&#45;&gt;fis</title>
<path fill="none" stroke="#5f5e5a" d="M268.88,-45.9C268.88,-42.71 268.88,-39.19 268.88,-35.7"/>
<polygon fill="#5f5e5a" stroke="#5f5e5a" points="271.33,-35.79 268.88,-28.79 266.43,-35.79 271.33,-35.79"/>
</g>
</g>
</svg>
