<?xml version="1.0" encoding="UTF-8" standalone="no"?>
<!DOCTYPE svg PUBLIC "-//W3C//DTD SVG 1.1//EN"
 "http://www.w3.org/Graphics/SVG/1.1/DTD/svg11.dtd">
<!-- Generated by graphviz version 2.43.0 (0)
 -->
<!-- Title: dos_subredes Pages: 1 -->
<svg width="597pt" height="216pt"
 viewBox="0.00 0.00 597.00 216.00" xmlns="http://www.w3.org/2000/svg" xmlns:xlink="http://www.w3.org/1999/xlink">
<g id="graph0" class="graph" transform="scale(1 1) rotate(0) translate(4 212)">
<title>dos_subredes</title>
<polygon fill="white" stroke="transparent" points="-4,4 -4,-212 593,-212 593,4 -4,4"/>
<g id="clust1" class="cluster">
<title>cluster_a</title>
<path fill="white" stroke="#0f6e56" stroke-dasharray="5,2" d="M12,-44C12,-44 194,-44 194,-44 200,-44 206,-50 206,-56 206,-56 206,-188 206,-188 206,-194 200,-200 194,-200 194,-200 12,-200 12,-200 6,-200 0,-194 0,-188 0,-188 0,-56 0,-56 0,-50 6,-44 12,-44"/>
<text text-anchor="middle" x="103" y="-184.8" font-family="DejaVu Sans" font-size="14.00">Subred A: 192.168.10.0/24</text>
</g>
<g id="clust2" class="cluster">
<title>cluster_b</title>
<path fill="white" stroke="#534ab7" stroke-dasharray="5,2" d="M395,-8C395,-8 577,-8 577,-8 583,-8 589,-14 589,-20 589,-20 589,-152 589,-152 589,-158 583,-164 577,-164 577,-164 395,-164 395,-164 389,-164 383,-158 383,-152 383,-152 383,-20 383,-20 383,-14 389,-8 395,-8"/>
<text text-anchor="middle" x="486" y="-148.8" font-family="DejaVu Sans" font-size="14.00">Subred B: 192.168.20.0/24</text>
</g>
<!-- a1 -->
<g id="node1" class="node">
<title>a1</title>
<path fill="#f1efe8" stroke="#5f5e5a" d="M145,-169C145,-169 61,-169 61,-169 55,-169 49,-163 49,-157 49,-157 49,-137 49,-137 49,-131 55,-125 61,-125 61,-125 145,-125 145,-125 151,-125 157,-131 157,-137 157,-137 157,-157 157,-157 157,-163 151,-169 145,-169"/>
<text text-anchor="middle" x="103" y="-156.2" font-family="DejaVu Sans" font-size="11.00">Oficina PC</text>
<text text-anchor="middle" x="103" y="-144.2" font-family="DejaVu Sans" font-size="11.00">192.168.10.20</text>
<text text-anchor="middle" x="103" y="-132.2" font-family="DejaVu Sans" font-size="11.00">gw 192.168.10.1</text>
</g>
<!-- r -->
<g id="node5" class="node">
<title>r</title>
<path fill="#faece7" stroke="#993c1d" d="M343,-96C343,-96 246,-96 246,-96 240,-96 234,-90 234,-84 234,-84 234,-64 234,-64 234,-58 240,-52 246,-52 246,-52 343,-52 343,-52 349,-52 355,-58 355,-64 355,-64 355,-84 355,-84 355,-90 349,-96 343,-96"/>
<text text-anchor="middle" x="294.5" y="-83.2" font-family="DejaVu Sans" font-size="11.00">Router</text>
<text text-anchor="middle" x="294.5" y="-71.2" font-family="DejaVu Sans" font-size="11.00">eth0: 192.168.10.1</text>
<text text-anchor="middle" x="294.5" y="-59.2" font-family="DejaVu Sans" font-size="11.00">eth1: 192.168.20.1</text>
</g>
<!-- a1&#45;&#45;r -->
<g id="edge1" class="edge">
<title>a1&#45;&#45;r</title>
<path fill="none" stroke="#5f5e5a" d="M157.16,-128.92C172.96,-123.37 190.24,-117.11 206,-111 218,-106.35 230.8,-101.1 242.82,-96.05"/>
</g>
<!-- a2 -->
<g id="node2" class="node">
<title>a2</title>
<path fill="#f1efe8" stroke="#5f5e5a" d="M145,-96C145,-96 61,-96 61,-96 55,-96 49,-90 49,-84 49,-84 49,-64 49,-64 49,-58 55,-52 61,-52 61,-52 145,-52 145,-52 151,-52 157,-58 157,-64 157,-64 157,-84 157,-84 157,-90 151,-96 145,-96"/>
<text text-anchor="middle" x="103" y="-83.2" font-family="DejaVu Sans" font-size="11.00">Servidor</text>
<text text-anchor="middle" x="103" y="-71.2" font-family="DejaVu Sans" font-size="11.00">192.168.10.10</text>
<text text-anchor="middle" x="103" y="-59.2" font-family="DejaVu Sans" font-size="11.00">gw 192.168.10.1</text>
</g>
<!-- a2&#45;&#45;r -->
<g id="edge2" class="edge">
<title>a2&#45;&#45;r</title>
<path fill="none" stroke="#5f5e5a" d="M157.04,-74C180.91,-74 209.19,-74 233.8,-74"/>
</g>
<!-- b1 -->
<g id="node3" class="node">
<title>b1</title>
<path fill="#f1efe8" stroke="#5f5e5a" d="M528,-133C528,-133 444,-133 444,-133 438,-133 432,-127 432,-121 432,-121 432,-101 432,-101 432,-95 438,-89 444,-89 444,-89 528,-89 528,-89 534,-89 540,-95 540,-101 540,-101 540,-121 540,-121 540,-127 534,-133 528,-133"/>
<text text-anchor="middle" x="486" y="-120.2" font-family="DejaVu Sans" font-size="11.00">Sensor galpón 1</text>
<text text-anchor="middle" x="486" y="-108.2" font-family="DejaVu Sans" font-size="11.00">192.168.20.31</text>
<text text-anchor="middle" x="486" y="-96.2" font-family="DejaVu Sans" font-size="11.00">gw 192.168.20.1</text>
</g>
<!-- b2 -->
<g id="node4" class="node">
<title>b2</title>
<path fill="#f1efe8" stroke="#5f5e5a" d="M528,-60C528,-60 444,-60 444,-60 438,-60 432,-54 432,-48 432,-48 432,-28 432,-28 432,-22 438,-16 444,-16 444,-16 528,-16 528,-16 534,-16 540,-22 540,-28 540,-28 540,-48 540,-48 540,-54 534,-60 528,-60"/>
<text text-anchor="middle" x="486" y="-47.2" font-family="DejaVu Sans" font-size="11.00">Sensor galpón 2</text>
<text text-anchor="middle" x="486" y="-35.2" font-family="DejaVu Sans" font-size="11.00">192.168.20.32</text>
<text text-anchor="middle" x="486" y="-23.2" font-family="DejaVu Sans" font-size="11.00">gw 192.168.20.1</text>
</g>
<!-- r&#45;&#45;b1 -->
<g id="edge3" class="edge">
<title>r&#45;&#45;b1</title>
<path fill="none" stroke="#5f5e5a" d="M355.2,-85.66C379.72,-90.44 407.88,-95.94 431.69,-100.59"/>
</g>
<!-- r&#45;&#45;b2 -->
<g id="edge4" class="edge">
<title>r&#45;&#45;b2</title>
<path fill="none" stroke="#5f5e5a" d="M355.2,-62.66C379.72,-58 407.88,-52.65 431.69,-48.13"/>
</g>
</g>
</svg>
