<?xml version="1.0" encoding="UTF-8" standalone="no"?>
<!DOCTYPE svg PUBLIC "-//W3C//DTD SVG 1.1//EN"
 "http://www.w3.org/Graphics/SVG/1.1/DTD/svg11.dtd">
<!-- Generated by graphviz version 2.43.0 (0)
 -->
<!-- Title: dns Pages: 1 -->
<svg width="755pt" height="206pt"
 viewBox="0.00 0.00 755.00 206.00" xmlns="http://www.w3.org/2000/svg" xmlns:xlink="http://www.w3.org/1999/xlink">
<g id="graph0" class="graph" transform="scale(1 1) rotate(0) translate(4 202)">
<title>dns</title>
<polygon fill="white" stroke="transparent" points="-4,4 -4,-202 751,-202 751,4 -4,4"/>
<!-- pc -->
<g id="node1" class="node">
<title>pc</title>
<path fill="#e1f5ee" stroke="#0f6e56" d="M86,-117C86,-117 12,-117 12,-117 6,-117 0,-111 0,-105 0,-105 0,-93 0,-93 0,-87 6,-81 12,-81 12,-81 86,-81 86,-81 92,-81 98,-87 98,-93 98,-93 98,-105 98,-105 98,-111 92,-117 86,-117"/>
<text text-anchor="middle" x="49" y="-102.2" font-family="DejaVu Sans" font-size="11.00">Tu equipo</text>
<text text-anchor="middle" x="49" y="-90.2" font-family="DejaVu Sans" font-size="11.00">(stub resolver)</text>
</g>
<!-- rec -->
<g id="node2" class="node">
<title>rec</title>
<path fill="#faece7" stroke="#993c1d" d="M416,-121C416,-121 307,-121 307,-121 301,-121 295,-115 295,-109 295,-109 295,-89 295,-89 295,-83 301,-77 307,-77 307,-77 416,-77 416,-77 422,-77 428,-83 428,-89 428,-89 428,-109 428,-109 428,-115 422,-121 416,-121"/>
<text text-anchor="middle" x="361.5" y="-108.2" font-family="DejaVu Sans" font-size="11.00">Resolvedor recursivo</text>
<text text-anchor="middle" x="361.5" y="-96.2" font-family="DejaVu Sans" font-size="11.00">(router, ISP, 1.1.1.1)</text>
<text text-anchor="middle" x="361.5" y="-84.2" font-family="DejaVu Sans" font-size="11.00">con caché</text>
</g>
<!-- pc&#45;&gt;rec -->
<g id="edge1" class="edge">
<title>pc&#45;&gt;rec</title>
<path fill="none" stroke="#5f5e5a" d="M98.17,-99C148.92,-99 229.41,-99 287.87,-99"/>
<polygon fill="#5f5e5a" stroke="#5f5e5a" points="287.88,-101.45 294.88,-99 287.88,-96.55 287.88,-101.45"/>
<text text-anchor="middle" x="196.5" y="-102" font-family="DejaVu Sans" font-size="10.00">1. ¿IP de www.ejemplo.co?</text>
</g>
<!-- rec&#45;&gt;pc -->
<g id="edge8" class="edge">
<title>rec&#45;&gt;pc</title>
<path fill="none" stroke="#5f5e5a" stroke-dasharray="5,2" d="M294.81,-77.62C283.96,-74.87 272.74,-72.5 262,-71 204.34,-62.96 188.42,-61.36 131,-71 120.99,-72.68 110.55,-75.46 100.64,-78.62"/>
<polygon fill="#5f5e5a" stroke="#5f5e5a" points="99.74,-76.34 93.87,-80.87 101.28,-80.99 99.74,-76.34"/>
<text text-anchor="middle" x="196.5" y="-85" font-family="DejaVu Sans" font-size="10.00">8. respuesta (y la guarda</text>
<text text-anchor="middle" x="196.5" y="-74" font-family="DejaVu Sans" font-size="10.00">en caché según TTL)</text>
</g>
<!-- raiz -->
<g id="node3" class="node">
<title>raiz</title>
<path fill="#f1efe8" stroke="#5f5e5a" d="M719,-194C719,-194 644,-194 644,-194 638,-194 632,-188 632,-182 632,-182 632,-170 632,-170 632,-164 638,-158 644,-158 644,-158 719,-158 719,-158 725,-158 731,-164 731,-170 731,-170 731,-182 731,-182 731,-188 725,-194 719,-194"/>
<text text-anchor="middle" x="681.5" y="-179.2" font-family="DejaVu Sans" font-size="11.00">Servidores raíz</text>
<text text-anchor="middle" x="681.5" y="-167.2" font-family="DejaVu Sans" font-size="11.00">( . )</text>
</g>
<!-- rec&#45;&gt;raiz -->
<g id="edge2" class="edge">
<title>rec&#45;&gt;raiz</title>
<path fill="none" stroke="#5f5e5a" d="M383.56,-121.22C402.04,-139.01 430.64,-162.63 461,-173 514.41,-191.23 579.47,-189.38 624.84,-184.57"/>
<polygon fill="#5f5e5a" stroke="#5f5e5a" points="625.26,-186.99 631.94,-183.78 624.71,-182.12 625.26,-186.99"/>
<text text-anchor="middle" x="522" y="-190" font-family="DejaVu Sans" font-size="10.00">2. pregunta</text>
</g>
<!-- tld -->
<g id="node4" class="node">
<title>tld</title>
<path fill="#f1efe8" stroke="#5f5e5a" d="M719.5,-123C719.5,-123 643.5,-123 643.5,-123 637.5,-123 631.5,-117 631.5,-111 631.5,-111 631.5,-99 631.5,-99 631.5,-93 637.5,-87 643.5,-87 643.5,-87 719.5,-87 719.5,-87 725.5,-87 731.5,-93 731.5,-99 731.5,-99 731.5,-111 731.5,-111 731.5,-117 725.5,-123 719.5,-123"/>
<text text-anchor="middle" x="681.5" y="-108.2" font-family="DejaVu Sans" font-size="11.00">Servidores TLD</text>
<text text-anchor="middle" x="681.5" y="-96.2" font-family="DejaVu Sans" font-size="11.00">( .co )</text>
</g>
<!-- rec&#45;&gt;tld -->
<g id="edge4" class="edge">
<title>rec&#45;&gt;tld</title>
<path fill="none" stroke="#5f5e5a" d="M428,-100.24C485.77,-101.33 569.08,-102.9 623.98,-103.93"/>
<polygon fill="#5f5e5a" stroke="#5f5e5a" points="624.16,-106.39 631.2,-104.07 624.25,-101.49 624.16,-106.39"/>
<text text-anchor="middle" x="522" y="-106" font-family="DejaVu Sans" font-size="10.00">4. pregunta</text>
</g>
<!-- aut -->
<g id="node5" class="node">
<title>aut</title>
<path fill="#f1efe8" stroke="#5f5e5a" d="M735,-36C735,-36 628,-36 628,-36 622,-36 616,-30 616,-24 616,-24 616,-12 616,-12 616,-6 622,0 628,0 628,0 735,0 735,0 741,0 747,-6 747,-12 747,-12 747,-24 747,-24 747,-30 741,-36 735,-36"/>
<text text-anchor="middle" x="681.5" y="-21.2" font-family="DejaVu Sans" font-size="11.00">Servidor autoritativo</text>
<text text-anchor="middle" x="681.5" y="-9.2" font-family="DejaVu Sans" font-size="11.00">( ejemplo.co )</text>
</g>
<!-- rec&#45;&gt;aut -->
<g id="edge6" class="edge">
<title>rec&#45;&gt;aut</title>
<path fill="none" stroke="#5f5e5a" d="M416.42,-76.95C430.76,-71.59 446.33,-66.19 461,-62 509.67,-48.08 565.64,-36.93 608.87,-29.34"/>
<polygon fill="#5f5e5a" stroke="#5f5e5a" points="609.5,-31.72 615.97,-28.11 608.66,-26.89 609.5,-31.72"/>
<text text-anchor="middle" x="522" y="-65" font-family="DejaVu Sans" font-size="10.00">6. pregunta</text>
</g>
<!-- raiz&#45;&gt;rec -->
<g id="edge3" class="edge">
<title>raiz&#45;&gt;rec</title>
<path fill="none" stroke="#5f5e5a" stroke-dasharray="5,2" d="M631.69,-164.18C579.17,-151.46 495.08,-131.1 434.86,-116.52"/>
<polygon fill="#5f5e5a" stroke="#5f5e5a" points="435.38,-114.13 428,-114.86 434.23,-118.89 435.38,-114.13"/>
<text text-anchor="middle" x="522" y="-154" font-family="DejaVu Sans" font-size="10.00">3. pregunta a .co</text>
</g>
<!-- tld&#45;&gt;rec -->
<g id="edge5" class="edge">
<title>tld&#45;&gt;rec</title>
<path fill="none" stroke="#5f5e5a" stroke-dasharray="5,2" d="M631.26,-91.66C615.92,-88.11 598.87,-84.77 583,-83 529.11,-77 515.05,-78.64 461,-83 452.55,-83.68 443.74,-84.69 435,-85.87"/>
<polygon fill="#5f5e5a" stroke="#5f5e5a" points="434.61,-83.45 428.02,-86.85 435.29,-88.3 434.61,-83.45"/>
<text text-anchor="middle" x="522" y="-86" font-family="DejaVu Sans" font-size="10.00">5. pregunta a ejemplo.co</text>
</g>
<!-- aut&#45;&gt;rec -->
<g id="edge7" class="edge">
<title>aut&#45;&gt;rec</title>
<path fill="none" stroke="#5f5e5a" stroke-dasharray="5,2" d="M615.63,-6.75C570.86,-1.66 510.69,-0.19 461,-18 431.28,-28.65 404.11,-52.57 385.87,-71.67"/>
<polygon fill="#5f5e5a" stroke="#5f5e5a" points="383.95,-70.12 380.96,-76.91 387.53,-73.47 383.95,-70.12"/>
<text text-anchor="middle" x="522" y="-21" font-family="DejaVu Sans" font-size="10.00">7. A 203.0.113.25</text>
</g>
</g>
</svg>
